<?xml version="1.0" encoding="UTF-8" standalone="no"?>
<svg
   id="Ebene_1"
   viewBox="0 0 1969.9943 394.70999"
   version="1.1"
   sodipodi:docname="RZ_Logo_UniGo_neu.svg"
   width="1969.9943"
   height="394.70999"
   inkscape:version="1.1 (c68e22c387, 2021-05-23)"
   xmlns:inkscape="http://www.inkscape.org/namespaces/inkscape"
   xmlns:sodipodi="http://sodipodi.sourceforge.net/DTD/sodipodi-0.dtd"
   xmlns="http://www.w3.org/2000/svg"
   xmlns:svg="http://www.w3.org/2000/svg">
  <sodipodi:namedview
     id="namedview45"
     pagecolor="#ffffff"
     bordercolor="#666666"
     borderopacity="1.0"
     inkscape:pageshadow="2"
     inkscape:pageopacity="0.0"
     inkscape:pagecheckerboard="0"
     showgrid="false"
     inkscape:zoom="0.10776515"
     inkscape:cx="3271.0018"
     inkscape:cy="1498.6292"
     inkscape:window-width="1920"
     inkscape:window-height="1017"
     inkscape:window-x="-8"
     inkscape:window-y="-8"
     inkscape:window-maximized="1"
     inkscape:current-layer="Ebene_1" />
  <defs
     id="defs30">
    <!--
    <style
       id="style28">.cls-1{fill:#00ada7;}.cls-2{fill:#a4d0a4;}</style>
       -->
  </defs>
  <path
     style="fill:#a4d0a4;"
     d="m 486.29,235.93 c -1.74,14.49 -5.31,27.57 -10.72,39.26 -5.41,11.69 -12.36,21.73 -20.86,30.13 -8.5,8.4 -18.45,14.87 -29.84,19.41 -11.4,4.54 -23.95,6.81 -37.67,6.81 -13.72,0 -25.98,-2.27 -36.22,-6.81 -10.24,-4.54 -18.54,-11.01 -24.92,-19.41 -6.38,-8.4 -10.72,-18.45 -13.04,-30.13 -2.32,-11.68 -2.61,-24.77 -0.87,-39.26 L 340.26,5.58 h -73.02 l -20.5,168.05 c -46.84,-0.28 -93.71,6.07 -139.39,18.92 -5.62,1.58 -11.23,3.27 -16.84,5.05 C 80.93,189.54 68.58,184.68 55.08,184.68 24.66,184.68 0,209.34 0,239.76 c 0,30.42 24.66,55.08 55.08,55.08 27.12,0 49.64,-19.6 54.22,-45.41 4.32,-1.35 8.64,-2.65 12.97,-3.86 38.64,-10.87 78.2,-16.51 117.75,-16.86 l -0.88,7.21 c -2.9,22.99 -1.84,44.14 3.19,63.46 5.02,19.32 13.62,36.07 25.79,50.27 12.17,14.2 27.67,25.26 46.51,33.18 18.83,7.92 40.61,11.88 65.34,11.88 24.73,0 47.76,-3.96 68.53,-11.88 20.77,-7.92 38.88,-18.98 54.33,-33.18 15.45,-14.2 28.06,-30.96 37.81,-50.27 9.76,-19.32 16.08,-40.47 18.98,-63.46 L 588.02,5.57 h -73.31 l -28.4,230.35 z"
     id="path32" />
  <path
      style="fill:#a4d0a4;"
     d="m 851.81,126.7 c -6.47,-9.27 -14.68,-16.32 -24.63,-21.15 -9.95,-4.83 -21.1,-7.24 -33.47,-7.24 -19.32,0 -38.05,5.12 -56.21,15.36 -18.16,10.24 -34.77,25.88 -49.84,46.94 l 1.45,-34.48 c 0.39,-8.31 -1.59,-14.34 -5.94,-18.11 -4.35,-3.77 -10.48,-5.65 -18.4,-5.65 h -37.38 l -34.48,288.01 h 73.6 l 15.07,-138.79 c 3.67,-14.1 8.64,-26.9 14.92,-38.39 6.28,-11.49 13.23,-21.3 20.86,-29.41 7.63,-8.11 15.6,-14.39 23.9,-18.83 8.31,-4.44 16.42,-6.66 24.34,-6.66 11.59,0 19.56,3.72 23.9,11.16 4.35,7.44 5.46,20.04 3.33,37.81 L 771.1,390.39 h 73.6 l 21.44,-183.12 c 2.12,-17.39 1.88,-32.84 -0.72,-46.36 -2.61,-13.52 -7.15,-24.92 -13.62,-34.19 z"
     id="path34" />
  <polygon
      style="fill:#a4d0a4;"
     points="1009.67,109.79 937.23,109.79 902.75,397.51 975.19,397.51 "
     id="polygon36"
     transform="translate(-5.01,-7.14)" />
  <path
      style="fill:#a4d0a4;"
     d="M 999,11.46 C 995.39,7.89 991.26,5.08 986.58,3.05 981.9,1.02 977.11,0 972.2,0 c -4.91,0 -9.63,1.06 -14.14,3.17 -4.51,2.11 -8.52,4.92 -12.05,8.41 -3.52,3.49 -6.35,7.6 -8.48,12.31 -2.13,4.71 -3.2,9.67 -3.2,14.87 0,5.2 1.07,10.11 3.2,14.75 2.13,4.64 4.92,8.69 8.36,12.19 3.44,3.49 7.42,6.26 11.92,8.29 4.5,2.03 9.14,3.05 13.89,3.05 4.75,0 9.71,-1.02 14.38,-3.05 4.67,-2.03 8.85,-4.79 12.54,-8.29 3.69,-3.49 6.64,-7.56 8.85,-12.19 2.21,-4.63 3.32,-9.55 3.32,-14.75 0,-5.2 -1.07,-10.36 -3.2,-14.99 -2.13,-4.63 -5,-8.73 -8.6,-12.31 z"
     id="path38" />
  <path
     style="fill:#00ada7;"
     d="m 1144.7,106.85 c 12.27,-13.62 26.9,-24.19 43.9,-31.73 17,-7.53 35.74,-11.3 56.21,-11.3 11.2,0 20.96,0.72 29.27,2.17 8.31,1.45 15.79,3.38 22.46,5.8 6.66,2.41 12.75,5.22 18.25,8.4 5.51,3.19 11.06,6.52 16.66,10 5.6,3.86 11.11,5.17 16.52,3.91 5.41,-1.26 10.04,-4.39 13.91,-9.42 l 23.47,-30.71 c -6.95,-7.15 -14.78,-13.91 -23.47,-20.28 -8.69,-6.37 -18.54,-11.98 -29.55,-16.81 -11.01,-4.83 -23.33,-8.64 -36.94,-11.45 -13.61,-2.81 -28.83,-4.2 -45.64,-4.2 -31.29,0 -60.27,5.46 -86.93,16.37 -26.66,10.91 -49.79,26.17 -69.4,45.78 -19.61,19.61 -34.96,42.88 -46.07,69.83 -11.11,26.95 -16.66,56.45 -16.66,88.52 0,24.92 4.06,47.91 12.17,68.96 8.11,21.06 19.56,39.26 34.34,54.62 14.78,15.36 32.6,27.38 53.46,36.07 20.86,8.69 43.95,13.04 69.25,13.04 15.45,0 29.99,-0.82 43.61,-2.46 13.62,-1.64 26.56,-4.1 38.83,-7.39 12.27,-3.29 24,-7.53 35.21,-12.75 11.2,-5.22 22.02,-11.4 32.45,-18.54 l 18.83,-156.47 h -127.78 l -4.64,41.72 c -0.39,3.86 0.68,6.95 3.19,9.27 2.51,2.32 5.99,3.48 10.43,3.48 h 45.78 l -8.4,69.25 c -10.82,5.02 -22.17,8.93 -34.05,11.73 -11.88,2.8 -25.64,4.2 -41.29,4.2 -15.65,0 -30.57,-2.66 -43.61,-7.97 -13.04,-5.31 -24.19,-13.04 -33.47,-23.18 -9.27,-10.14 -16.47,-22.41 -21.59,-36.8 -5.12,-14.39 -7.68,-30.76 -7.68,-49.11 0,-23.18 3.43,-44.33 10.29,-63.46 6.86,-19.12 16.42,-35.49 28.69,-49.11 z"
     id="path40" />
  <path
      style="fill:#00ada7;"
     d="m 1946.51,105.21 -130.8,-19.51 -8.12,54.48 73.17,10.91 c -22.4,16.2 -45.77,29.22 -69.87,38.9 -41.39,16.63 -83.97,23.15 -126.89,19.46 -0.98,-15.11 -3.94,-28.79 -8.91,-41.04 -6.18,-15.26 -14.73,-28.11 -25.64,-38.54 -10.91,-10.43 -23.81,-18.35 -38.68,-23.76 -14.87,-5.41 -31.1,-8.11 -48.68,-8.11 -22.41,0 -43.46,4.39 -63.17,13.18 -19.71,8.79 -36.94,20.96 -51.72,36.51 -14.78,15.55 -26.46,33.9 -35.06,55.05 -8.6,21.15 -12.89,44.19 -12.89,69.11 0,19.7 3.09,37.18 9.27,52.45 6.18,15.26 14.68,28.11 25.5,38.54 10.82,10.43 23.71,18.35 38.68,23.76 14.97,5.41 31.24,8.11 48.82,8.11 22.41,0 43.51,-4.44 63.31,-13.33 19.8,-8.89 37.09,-21.15 51.87,-36.8 14.78,-15.65 26.42,-34.05 34.92,-55.2 3.25,-8.1 5.88,-16.44 7.89,-25.03 9.31,0.8 18.6,1.2 27.88,1.2 41.98,0 83.52,-8.17 124.05,-24.46 25.11,-10.09 49.45,-23.2 72.81,-39.19 l -8.56,57.39 54.48,8.12 19.52,-130.92 c 2.24,-15.04 -8.13,-29.06 -23.18,-31.3 z m -341.53,160.72 c -3.86,14.2 -9.42,26.66 -16.66,37.38 -7.24,10.72 -15.98,19.27 -26.22,25.64 -10.24,6.37 -21.83,9.56 -34.77,9.56 -18.16,0 -31.78,-5.41 -40.86,-16.23 -9.08,-10.82 -13.62,-27.72 -13.62,-50.71 0,-15.84 1.93,-30.91 5.79,-45.2 3.86,-14.29 9.42,-26.75 16.66,-37.38 7.24,-10.62 16.03,-19.08 26.37,-25.35 10.33,-6.28 21.88,-9.42 34.63,-9.42 18.35,0 32.02,5.31 41,15.94 8.98,10.62 13.47,27.62 13.47,51 0,15.65 -1.93,30.57 -5.79,44.77 z"
     id="path42" />
</svg>
