<?xml version="1.0" encoding="UTF-8"?><svg id="Chat" xmlns="http://www.w3.org/2000/svg" viewBox="0 0 300 300"><defs><style>.cls-1{fill:#fff;}</style></defs><path class="cls-1" d="m292.4,258.94c-18.22-12.33-30.17-21.37-38.17-28.2,15.52-22.16,24.63-49.13,24.63-78.24,0-75.42-61.14-136.56-136.56-136.56S5.75,77.08,5.75,152.5s61.14,136.56,136.56,136.56c23.64,0,45.87-6.01,65.26-16.58,30.3,10.45,81.47,8.18,86.87-7.17.82-2.33,0-4.98-2.04-6.37Zm-189.65-92.94c-7.46,0-13.5-6.04-13.5-13.5s6.04-13.5,13.5-13.5,13.5,6.04,13.5,13.5-6.04,13.5-13.5,13.5Zm39.5,0c-7.46,0-13.5-6.04-13.5-13.5s6.04-13.5,13.5-13.5,13.5,6.04,13.5,13.5-6.04,13.5-13.5,13.5Zm39.5,0c-7.46,0-13.5-6.04-13.5-13.5s6.04-13.5,13.5-13.5,13.5,6.04,13.5,13.5-6.04,13.5-13.5,13.5Z"/></svg>