<?xml version="1.0" encoding="UTF-8"?><svg id="Car" xmlns="http://www.w3.org/2000/svg" viewBox="0 0 300 300"><defs><style>.cls-1{fill:#fff;}</style></defs><g id="Voll"><path class="cls-1" d="m271.09,119.63h-.34l-27.4-81.5c-3.93-9.84-13.46-16.29-24.06-16.29H80.77c-11.49,0-21.8,7.05-25.98,17.75l-26.14,80.04h-.07c-14.31,0-25.91,11.6-25.91,25.91v79.15c0,13.32,10.05,24.28,22.97,25.74v9.57c0,12.02,9.74,21.76,21.76,21.76s21.76-9.74,21.76-21.76v-9.4h161.68v9.4c0,12.02,9.74,21.76,21.76,21.76h0c12.02,0,21.76-9.74,21.76-21.76v-9.61c12.76-1.61,22.63-12.5,22.63-25.7v-79.15c0-14.31-11.6-25.91-25.91-25.91Zm-204.62-11.4l15.21-52c.78-1.99,2.69-3.3,4.83-3.3h125.78c2.12,0,4.02,1.29,4.81,3.26l15.6,52c1.36,3.4-1.15,7.11-4.81,7.11H71.29c-3.65,0-6.15-3.67-4.83-7.06Zm-14.57,78.77c-11.45,0-20.73-9.28-20.73-20.73s9.28-20.73,20.73-20.73,20.73,9.28,20.73,20.73-9.28,20.73-20.73,20.73Zm195.88-41.46c11.45,0,20.73,9.28,20.73,20.73s-9.28,20.73-20.73,20.73-20.73-9.28-20.73-20.73,9.28-20.73,20.73-20.73Z"/></g></svg>