<?xml version="1.0" encoding="UTF-8"?><svg id="Einstellungen" xmlns="http://www.w3.org/2000/svg" viewBox="0 0 300 300"><defs><style>.cls-1{fill:#fff;}</style></defs><g id="Ebene_5"><path class="cls-1" d="m271.5,117.25h-15.4c-2-6.43-4.58-12.61-7.66-18.47l10.9-10.9c9.72-9.72,9.72-25.63,0-35.36l-10.61-10.61c-9.72-9.72-25.63-9.72-35.36,0l-10.9,10.9c-5.86-3.09-12.04-5.67-18.47-7.66v-15.4c0-13.75-11.25-25-25-25h-15c-13.75,0-25,11.25-25,25v15.4c-6.43,2-12.61,4.58-18.47,7.66l-10.9-10.9c-9.72-9.72-25.63-9.72-35.36,0l-10.61,10.61c-9.72,9.72-9.72,25.63,0,35.36l10.9,10.9c-3.09,5.86-5.67,12.04-7.66,18.47h-15.4c-13.75,0-25,11.25-25,25v15c0,13.75,11.25,25,25,25h15.4c2,6.43,4.58,12.61,7.66,18.47l-10.9,10.9c-9.72,9.72-9.72,25.63,0,35.36l10.61,10.61c9.72,9.72,25.63,9.72,35.36,0l10.9-10.9c5.86,3.09,12.04,5.67,18.47,7.66v15.4c0,13.75,11.25,25,25,25h15c13.75,0,25-11.25,25-25v-15.4c6.43-2,12.61-4.58,18.47-7.66l10.9,10.9c9.72,9.72,25.63,9.72,35.36,0l10.61-10.61c9.72-9.72,9.72-25.63,0-35.36l-10.9-10.9c3.09-5.86,5.67-12.04,7.66-18.47h15.4c13.75,0,25-11.25,25-25v-15c0-13.75-11.25-25-25-25Zm-120,92c-32.86,0-59.5-26.64-59.5-59.5s26.64-59.5,59.5-59.5,59.5,26.64,59.5,59.5-26.64,59.5-59.5,59.5Z"/></g></svg>